HIERARCHY
ROOT Hips
{
    OFFSET 0.000000 0.000000 0.000000
    CHANNELS 6 Xposition Yposition Zposition Zrotation Yrotation Xrotation
    JOINT Chest
    {
        OFFSET 0.000000 1.634758 -0.000000
        CHANNELS 3 Zrotation Yrotation Xrotation
        JOINT Chest2
        {
            OFFSET 0.000000 2.197341 0.000000
            CHANNELS 3 Zrotation Yrotation Xrotation
            JOINT Neck
            {
                OFFSET 0.000000 0.961544 0.000000
                CHANNELS 3 Zrotation Yrotation Xrotation
                JOINT Head
                {
                    OFFSET 0.000000 0.632542 -0.032565
                    CHANNELS 3 Zrotation Yrotation Xrotation
                    End Site
                    {
                        OFFSET -0.000001 0.439502 2.922845
                    }
                }
            }
            JOINT LeftCollar
            {
                OFFSET 0.167536 0.778237 -0.168280
                CHANNELS 3 Zrotation Yrotation Xrotation
                JOINT LeftShoulder
                {
                    OFFSET 0.831514 -0.002900 0.006458
                    CHANNELS 3 Zrotation Yrotation Xrotation
                    JOINT LeftElbow
                    {
                        OFFSET 2.272872 -0.026639 0.059314
                        CHANNELS 3 Zrotation Yrotation Xrotation
                        JOINT LeftWrist
                        {
                            OFFSET 2.081982 -0.024402 0.054333
                            CHANNELS 3 Zrotation Yrotation Xrotation
                            JOINT LeftHandThumb1
                            {
                                OFFSET 0.218903 -0.128645 0.283837
                                CHANNELS 3 Zrotation Yrotation Xrotation
                                JOINT LeftHandThumb2
                                {
                                    OFFSET 0.137157 -0.025101 0.077902
                                    CHANNELS 3 Zrotation Yrotation Xrotation
                                    JOINT LeftHandThumb3
                                    {
                                        OFFSET 0.165861 -0.067014 0.039226
                                        CHANNELS 3 Zrotation Yrotation Xrotation
                                        End Site
                                        {
                                            OFFSET 0.241157 -0.045065 0.107930
                                        }
                                    }
                                }
                            }
                            JOINT LeftHandFore1
                            {
                                OFFSET 0.767340 -0.016076 0.196678
                                CHANNELS 3 Zrotation Yrotation Xrotation
                                JOINT LeftHandFore2
                                {
                                    OFFSET 0.215173 -0.024035 0.010864
                                    CHANNELS 3 Zrotation Yrotation Xrotation
                                    JOINT LeftHandFore3
                                    {
                                        OFFSET 0.127998 -0.018363 0.006493
                                        CHANNELS 3 Zrotation Yrotation Xrotation
                                        End Site
                                        {
                                            OFFSET 0.191872 -0.022849 0.005461
                                        }
                                    }
                                }
                            }
                            JOINT LeftHandMiddle1
                            {
                                OFFSET 0.709887 -0.008320 0.018526
                                CHANNELS 3 Zrotation Yrotation Xrotation
                                JOINT LeftHandMiddle2
                                {
                                    OFFSET 0.243305 -0.028680 0.006624
                                    CHANNELS 3 Zrotation Yrotation Xrotation
                                    JOINT LeftHandMiddle3
                                    {
                                        OFFSET 0.145223 -0.016669 0.003951
                                        CHANNELS 3 Zrotation Yrotation Xrotation
                                        End Site
                                        {
                                            OFFSET 0.233621 -0.031666 0.006995
                                        }
                                    }
                                }
                            }
                            JOINT LeftHandRing1
                            {
                                OFFSET 0.743817 -0.005823 -0.153668
                                CHANNELS 3 Zrotation Yrotation Xrotation
                                JOINT LeftHandRing2
                                {
                                    OFFSET 0.349394 -0.050632 -0.009675
                                    CHANNELS 3 Zrotation Yrotation Xrotation
                                    JOINT LeftHandRing3
                                    {
                                        OFFSET 0.134332 -0.023631 0.001421
                                        CHANNELS 3 Zrotation Yrotation Xrotation
                                        End Site
                                        {
                                            OFFSET 0.116893 -0.027460 0.001278
                                        }
                                    }
                                }
                            }
                            JOINT LeftHandLittle1
                            {
                                OFFSET 0.689408 -0.053302 -0.308304
                                CHANNELS 3 Zrotation Yrotation Xrotation
                                JOINT LeftHandLittle2
                                {
                                    OFFSET 0.193251 -0.018757 -0.018874
                                    CHANNELS 3 Zrotation Yrotation Xrotation
                                    JOINT LeftHandLittle3
                                    {
                                        OFFSET 0.116994 -0.025997 -0.011519
                                        CHANNELS 3 Zrotation Yrotation Xrotation
                                        End Site
                                        {
                                            OFFSET 0.189726 -0.012367 -0.011818
                                        }
                                    }
                                }
                            }
                        }
                    }
                }
            }
            JOINT RightCollar
            {
                OFFSET -0.167536 0.778237 -0.168280
                CHANNELS 3 Zrotation Yrotation Xrotation
                JOINT RightShoulder
                {
                    OFFSET -0.831514 -0.002900 0.006457
                    CHANNELS 3 Zrotation Yrotation Xrotation
                    JOINT RightElbow
                    {
                        OFFSET -2.272872 -0.026639 0.059313
                        CHANNELS 3 Zrotation Yrotation Xrotation
                        JOINT RightWrist
                        {
                            OFFSET -2.081982 -0.024402 0.054331
                            CHANNELS 3 Zrotation Yrotation Xrotation
                            JOINT RightHandThumb1
                            {
                                OFFSET -0.218911 -0.128571 0.283837
                                CHANNELS 3 Zrotation Yrotation Xrotation
                                JOINT RightHandThumb2
                                {
                                    OFFSET -0.137157 -0.025101 0.077902
                                    CHANNELS 3 Zrotation Yrotation Xrotation
                                    JOINT RightHandThumb3
                                    {
                                        OFFSET -0.165861 -0.067014 0.039226
                                        CHANNELS 3 Zrotation Yrotation Xrotation
                                        End Site
                                        {
                                            OFFSET -0.229436 -0.065997 0.121819
                                        }
                                    }
                                }
                            }
                            JOINT RightHandFore1
                            {
                                OFFSET -0.767344 -0.015991 0.196679
                                CHANNELS 3 Zrotation Yrotation Xrotation
                                JOINT RightHandFore2
                                {
                                    OFFSET -0.215182 -0.023988 0.010864
                                    CHANNELS 3 Zrotation Yrotation Xrotation
                                    JOINT RightHandFore3
                                    {
                                        OFFSET -0.127999 -0.018333 0.006493
                                        CHANNELS 3 Zrotation Yrotation Xrotation
                                        End Site
                                        {
                                            OFFSET -0.191454 -0.022769 0.013914
                                        }
                                    }
                                }
                            }
                            JOINT RightHandMiddle1
                            {
                                OFFSET -0.709887 -0.008302 0.018525
                                CHANNELS 3 Zrotation Yrotation Xrotation
                                JOINT RightHandMiddle2
                                {
                                    OFFSET -0.243299 -0.028704 0.006624
                                    CHANNELS 3 Zrotation Yrotation Xrotation
                                    JOINT RightHandMiddle3
                                    {
                                        OFFSET -0.145226 -0.016685 0.003951
                                        CHANNELS 3 Zrotation Yrotation Xrotation
                                        End Site
                                        {
                                            OFFSET -0.233653 -0.031672 0.005780
                                        }
                                    }
                                }
                            }
                            JOINT RightHandRing1
                            {
                                OFFSET -0.743819 -0.005785 -0.153669
                                CHANNELS 3 Zrotation Yrotation Xrotation
                                JOINT RightHandRing2
                                {
                                    OFFSET -0.349398 -0.050607 -0.009675
                                    CHANNELS 3 Zrotation Yrotation Xrotation
                                    JOINT RightHandRing3
                                    {
                                        OFFSET -0.134041 -0.023657 -0.008853
                                        CHANNELS 3 Zrotation Yrotation Xrotation
                                        End Site
                                        {
                                            OFFSET -0.116640 -0.027483 -0.007746
                                        }
                                    }
                                }
                            }
                            JOINT RightHandLittle1
                            {
                                OFFSET -0.689403 -0.053298 -0.308303
                                CHANNELS 3 Zrotation Yrotation Xrotation
                                JOINT RightHandLittle2
                                {
                                    OFFSET -0.193254 -0.018752 -0.018875
                                    CHANNELS 3 Zrotation Yrotation Xrotation
                                    JOINT RightHandLittle3
                                    {
                                        OFFSET -0.116992 -0.025993 -0.011520
                                        CHANNELS 3 Zrotation Yrotation Xrotation
                                        End Site
                                        {
                                            OFFSET -0.188440 -0.012318 -0.025042
                                        }
                                    }
                                }
                            }
                        }
                    }
                }
            }
        }
    }
    JOINT LeftHip
    {
        OFFSET 0.685143 0.673822 -0.044491
        CHANNELS 3 Zrotation Yrotation Xrotation
        JOINT LeftKnee
        {
            OFFSET 0.085364 -3.750208 0.017676
            CHANNELS 3 Zrotation Yrotation Xrotation
            JOINT LeftAnkle
            {
                OFFSET 0.094583 -4.155206 0.019585
                CHANNELS 3 Zrotation Yrotation Xrotation
                JOINT LeftToe
                {
                    OFFSET -0.000000 -0.395925 0.621478
                    CHANNELS 3 Zrotation Yrotation Xrotation
                    End Site
                    {
                        OFFSET -0.000000 -0.077878 0.321152
                    }
                }
            }
        }
    }
    JOINT RightHip
    {
        OFFSET -0.685143 0.673822 -0.044492
        CHANNELS 3 Zrotation Yrotation Xrotation
        JOINT RightKnee
        {
            OFFSET -0.085364 -3.750208 0.017677
            CHANNELS 3 Zrotation Yrotation Xrotation
            JOINT RightAnkle
            {
                OFFSET -0.094583 -4.155206 0.019585
                CHANNELS 3 Zrotation Yrotation Xrotation
                JOINT RightToe
                {
                    OFFSET -0.000000 -0.395925 0.621478
                    CHANNELS 3 Zrotation Yrotation Xrotation
                    End Site
                    {
                        OFFSET -0.000000 -0.077878 0.321152
                    }
                }
            }
        }
    }
}
MOTION
Frames: 6
Frame Time: 0.033333
-0.029682 8.423174 -0.471313 180.000000 -0.000011 180.000000 -0.000002 0.000000 -3.571785 -0.000002 -0.000000 -3.645255 0.000003 -0.000003 4.684103 0.000005 -0.000009 11.067131 -3.040931 -5.690826 -0.019915 -26.054918 11.628503 4.198423 177.921875 -61.639404 -178.767471 -10.433653 -2.002761 -6.004033 0.000001 -0.000002 -0.000002 0.000000 -0.000002 -0.000007 -0.000002 0.000003 -0.000001 0.000002 -0.000000 0.000000 -0.000002 -0.000002 -0.000002 0.000002 0.000002 -0.000003 0.000002 -0.000002 -0.000003 -0.000003 -0.000003 0.000001 0.000000 -0.000002 -0.000001 -0.000001 -0.000002 -0.000007 0.000001 -0.000002 0.000004 0.000000 -0.000002 0.000000 0.000000 -0.000002 0.000003 0.000003 -0.000000 -0.000002 -0.000003 -0.000007 -0.000000 3.069711 5.867998 -0.020542 25.945974 -10.507781 4.296398 -177.862289 62.889500 -178.700073 2.050799 7.229808 -8.168529 0.000002 -0.000000 -0.000005 0.000001 0.000002 0.000003 0.000004 0.000003 0.000002 -0.000001 -0.000003 -0.000001 -0.000001 -0.000000 -0.000002 0.000000 -0.000000 -0.000001 -0.000002 -0.000003 -0.000001 -0.000001 -0.000000 0.000000 -0.000002 -0.000002 -0.000001 -0.000003 -0.000002 -0.000001 -0.000001 -0.000003 -0.000001 0.000002 -0.000000 -0.000006 -0.000003 -0.000002 0.000001 -0.000002 -0.000003 -0.000001 0.000000 0.000003 -0.000003 -2.983108 -13.005990 -2.324607 0.026257 0.260360 11.515564 0.493519 2.390497 -13.678173 -0.000000 -0.000000 -0.000000 2.983547 13.006532 -2.350737 -0.026511 -0.261652 11.573459 -0.487018 -2.393998 -13.704635 -0.000000 -0.000001 -0.000001
-0.029680 8.423174 -0.471313 180.000000 -0.000011 180.000000 0.001201 0.000386 -3.571784 0.001238 -0.000152 -3.645252 -0.011518 0.000530 4.684068 -0.000025 0.000563 11.067162 -3.041208 -5.690620 -0.019928 -26.052441 11.628593 4.202093 177.921799 -61.640976 -178.767380 -10.433650 -2.002768 -6.003889 -0.000007 -0.000002 -0.000009 0.000003 -0.000000 -0.000005 0.000000 0.000003 0.000000 -0.000009 -0.000012 -0.000000 -0.000001 -0.000003 0.000000 0.000002 -0.000002 -0.000001 0.000002 0.000002 -0.000007 -0.000002 -0.000003 -0.000001 0.000000 -0.000003 -0.000001 -0.000002 -0.000007 -0.000008 -0.000001 -0.000000 0.000003 -0.000002 -0.000002 -0.000005 -0.000002 -0.000002 -0.000004 -0.000002 -0.000002 0.000000 -0.000001 -0.000002 0.000004 3.069379 5.868212 -0.020529 25.938360 -10.506742 4.301105 -177.862396 62.887764 -178.700165 2.050794 7.229805 -8.168423 0.000006 0.000007 -0.000016 0.000002 -0.000000 0.000002 -0.000003 -0.000000 -0.000001 -0.000006 0.000005 0.000004 0.000001 0.000003 0.000003 0.000001 -0.000000 -0.000005 -0.000006 0.000007 0.000006 -0.000002 -0.000002 0.000002 0.000000 -0.000000 0.000002 -0.000007 0.000003 0.000007 0.000003 0.000002 0.000003 -0.000000 -0.000003 0.000001 -0.000005 0.000009 0.000003 -0.000000 -0.000002 0.000004 0.000001 0.000003 0.000001 -2.983615 -13.005970 -2.323515 0.026248 0.260313 11.513472 0.503470 2.392946 -13.674964 -0.000000 -0.000001 0.000000 2.983531 12.999040 -2.350822 -0.026509 -0.261644 11.573092 -0.488812 -2.386683 -13.704213 -0.000001 -0.000003 0.000008
-0.029675 8.423174 -0.471312 180.000000 -0.000011 180.000000 0.004777 0.001534 -3.571784 0.004923 -0.000605 -3.645252 -0.045058 0.002091 4.683978 -0.000110 0.002223 11.067246 -3.042086 -5.690000 -0.019964 -26.045141 11.628897 4.212882 177.921585 -61.645653 -178.767151 -10.433639 -2.002770 -6.003458 -0.000020 -0.000000 -0.000002 0.000000 -0.000002 -0.000004 -0.000001 0.000003 0.000004 -0.000017 -0.000002 0.000002 -0.000001 -0.000003 0.000002 0.000000 0.000002 0.000001 -0.000009 0.000010 -0.000001 -0.000003 -0.000002 0.000002 -0.000003 -0.000002 -0.000001 -0.000018 -0.000007 0.000001 0.000004 0.000003 0.000005 -0.000002 -0.000002 0.000001 -0.000015 -0.000000 0.000008 0.000000 0.000003 0.000005 -0.000002 -0.000000 -0.000001 3.068395 5.868853 -0.020493 25.915808 -10.503702 4.315022 -177.862640 62.882614 -178.700455 2.050789 7.229807 -8.168119 -0.000003 -0.000000 -0.000002 0.000003 0.000002 0.000001 0.000005 -0.000000 -0.000003 0.000002 0.000002 -0.000001 0.000000 0.000002 0.000002 -0.000000 -0.000002 -0.000003 -0.000005 -0.000003 -0.000003 0.000001 0.000002 0.000006 -0.000002 -0.000005 -0.000003 -0.000005 0.000003 -0.000001 0.000000 0.000003 0.000003 -0.000002 -0.000003 0.000003 -0.000003 -0.000002 -0.000003 0.000004 0.000002 0.000003 -0.000001 -0.000000 0.000001 -2.985117 -13.005900 -2.320721 0.026224 0.260194 11.508119 0.532465 2.400062 -13.665974 -0.000001 -0.000003 0.000001 2.983493 12.976961 -2.351545 -0.026509 -0.261642 11.572907 -0.494103 -2.365113 -13.703371 -0.000000 -0.000002 0.000000
-0.029667 8.423173 -0.471311 180.000000 -0.000011 180.000000 0.010676 0.003427 -3.571777 0.011004 -0.001351 -3.645249 -0.099079 0.004626 4.683824 -0.000247 0.004887 11.067375 -3.043464 -5.688985 -0.020024 -26.033207 11.629390 4.230614 177.921219 -61.653316 -178.766754 -10.433618 -2.002774 -6.002747 -0.000013 -0.000009 -0.000012 -0.000001 -0.000002 -0.000005 0.000002 0.000002 0.000004 -0.000003 -0.000010 -0.000002 -0.000001 -0.000003 0.000000 -0.000002 -0.000003 0.000005 -0.000002 -0.000000 -0.000004 0.000001 -0.000002 0.000000 -0.000002 -0.000002 0.000004 -0.000004 -0.000003 0.000001 0.000001 -0.000000 -0.000001 0.000000 -0.000002 -0.000000 -0.000004 -0.000000 0.000001 0.000002 -0.000002 -0.000004 -0.000001 -0.000000 0.000002 3.066746 5.869909 -0.020432 25.878752 -10.498683 4.337790 -177.863068 62.874050 -178.700928 2.050776 7.229814 -8.167604 -0.000002 0.000010 -0.000013 -0.000002 -0.000007 0.000006 0.000003 0.000007 -0.000001 -0.000004 -0.000000 0.000009 -0.000003 -0.000000 0.000002 -0.000000 -0.000003 0.000004 -0.000009 -0.000005 0.000001 0.000003 -0.000000 0.000003 -0.000002 -0.000003 -0.000001 -0.000012 -0.000007 -0.000000 0.000001 0.000003 0.000000 0.000002 -0.000000 -0.000003 -0.000007 -0.000003 0.000001 -0.000002 -0.000002 0.000002 0.000000 0.000002 0.000000 -2.987593 -13.005793 -2.315705 0.026181 0.259979 11.498504 0.579256 2.411563 -13.651010 0.000000 -0.000001 0.000001 2.983451 12.940906 -2.352816 -0.026508 -0.261636 11.572786 -0.502783 -2.329894 -13.702092 -0.000000 -0.000003 -0.000004
-0.029655 8.423173 -0.471309 180.000000 -0.000011 180.000000 0.018851 0.006051 -3.571773 0.019429 -0.002386 -3.645243 -0.172047 0.008083 4.683613 -0.000432 0.008469 11.067555 -3.045465 -5.687568 -0.020111 -26.016802 11.630096 4.255012 177.920746 -61.663967 -178.766190 -10.433592 -2.002782 -6.001777 -0.000010 -0.000003 -0.000009 -0.000002 0.000003 -0.000007 -0.000003 -0.000002 0.000001 -0.000009 -0.000003 0.000001 -0.000002 -0.000002 -0.000003 -0.000003 -0.000003 0.000000 -0.000007 0.000002 -0.000003 0.000000 -0.000002 -0.000003 -0.000001 -0.000002 0.000002 -0.000009 0.000002 0.000002 0.000001 0.000002 0.000002 0.000001 -0.000002 -0.000006 -0.000009 0.000002 0.000006 0.000001 -0.000002 -0.000000 -0.000004 -0.000000 -0.000002 3.064480 5.871374 -0.020349 25.827724 -10.491707 4.369129 -177.863663 62.862240 -178.701599 2.050759 7.229818 -8.166906 -0.000009 0.000009 -0.000016 0.000000 -0.000000 0.000003 0.000003 0.000002 0.000000 -0.000009 0.000002 0.000011 -0.000002 -0.000005 0.000000 -0.000003 -0.000000 -0.000001 -0.000019 -0.000009 0.000008 0.000003 0.000003 -0.000001 -0.000003 -0.000003 0.000002 -0.000010 -0.000003 0.000005 -0.000001 -0.000002 0.000003 0.000000 -0.000003 -0.000001 -0.000012 -0.000010 0.000011 0.000000 -0.000002 -0.000002 -0.000001 -0.000000 0.000000 -2.991015 -13.005635 -2.309046 0.026122 0.259694 11.485738 0.642558 2.427112 -13.630879 -0.000001 -0.000003 -0.000003 2.983424 12.891481 -2.354323 -0.026505 -0.261623 11.572172 -0.514748 -2.281636 -13.700132 -0.000000 -0.000002 0.000003
-0.029640 8.423172 -0.471307 180.000000 -0.000011 180.000000 0.029250 0.009388 -3.571765 0.030147 -0.003702 -3.645249 -0.262426 0.012405 4.683353 -0.000659 0.012886 11.067768 -3.047933 -5.685775 -0.020211 -25.996231 11.630975 4.285838 177.920135 -61.677586 -178.765488 -10.433558 -2.002794 -6.000557 -0.000015 -0.000012 -0.000009 0.000003 0.000002 -0.000003 0.000000 -0.000000 0.000005 -0.000008 -0.000012 0.000004 0.000003 0.000002 -0.000001 -0.000001 -0.000000 0.000003 -0.000001 0.000005 -0.000001 0.000003 0.000002 0.000000 -0.000002 -0.000000 -0.000001 -0.000003 -0.000000 0.000009 0.000001 0.000003 -0.000002 -0.000003 -0.000005 0.000002 -0.000003 0.000003 0.000002 -0.000001 -0.000003 -0.000001 -0.000001 0.000002 -0.000002 3.061586 5.873239 -0.020235 25.763159 -10.482839 4.408621 -177.864410 62.847172 -178.702454 2.050732 7.229822 -8.166018 -0.000007 0.000002 -0.000015 0.000005 -0.000002 0.000006 0.000002 0.000005 0.000005 -0.000007 -0.000007 0.000003 -0.000001 -0.000002 -0.000001 0.000002 0.000002 -0.000001 -0.000010 -0.000015 -0.000003 0.000001 0.000003 -0.000000 0.000003 0.000003 -0.000006 -0.000008 -0.000007 0.000006 -0.000001 -0.000005 0.000000 0.000002 -0.000000 0.000003 -0.000012 -0.000014 -0.000001 -0.000001 0.000003 -0.000003 0.000001 0.000002 0.000002 -2.995360 -13.005443 -2.300411 0.026047 0.259328 11.469186 0.721122 2.446409 -13.605564 0.000000 -0.000001 0.000000 2.983427 12.829289 -2.356169 -0.026502 -0.261606 11.571314 -0.529882 -2.220927 -13.697644 -0.000000 -0.000000 0.000006
